<svg xmlns="http://www.w3.org/2000/svg" width="200" height="200" fill="none" xmlns:v="https://vecta.io/nano"><rect width="200" height="200" rx="12" fill="#fff"/><path d="M52.815 105.823l4.279-21.402 3.423-25.293 3.423 25.293 4.279 21.402h26.898l14.917-60.072H86.071l-2.69 25.658-1.956 21.159-3.423-21.037-5.502-25.78H48.291l-5.013 25.78-3.668 21.037-1.956-21.159-2.69-25.658H11l14.916 60.072h26.898zm89.047 1.216c9.781 0 16.261-4.621 18.829-7.54L154.7 83.083c-1.957 3.04-5.135 4.986-7.825 4.986-2.812 0-4.402-1.581-4.402-4.743V62.289h14.672V45.751h-14.672V29.213l-22.008 9.728v6.81h-8.558v16.538h8.558v24.199c0 11.674 5.747 20.551 21.397 20.551zM52.815 180l4.279-21.402 3.423-25.293 3.423 25.293L68.22 180h26.898l14.917-60.072H86.071l-2.69 25.659-1.956 21.158-3.423-21.037-5.502-25.78H48.291l-5.013 25.78-3.668 21.037-1.956-21.158-2.69-25.659H11L25.916 180h26.898zm82.022 0v-30.279c0-9.728 4.646-14.471 9.658-14.471 3.546 0 5.013 2.311 5.013 5.716 0 3.648-2.445 8.269-4.646 10.822h20.174c1.712-3.04 4.157-9.242 4.157-16.538 0-9.971-3.912-16.538-14.427-16.538-12.349 0-18.095 11.188-19.929 21.524v-20.308h-22.008V180h22.008zm42.181-146.044c6.602 0 11.982-4.864 11.982-12.039C189 14.864 183.62 10 177.018 10s-11.982 4.864-11.982 11.917c0 7.175 5.38 12.039 11.982 12.039zm0-8.391c-1.956 0-3.179-1.338-3.179-3.648s1.223-3.526 3.179-3.526 3.179 1.216 3.179 3.526-1.223 3.648-3.179 3.648z" fill="#000"/></svg>